<svg id="Capa_1" enable-background="new 0 0 512 512" height="512" viewBox="0 0 512 512" width="512" xmlns="http://www.w3.org/2000/svg"><g><g><path d="m15.514 383.61c20.643-8.376 20.643-37.604 0-45.98-25.342-10.283-17.841-47.998 9.508-47.8 22.277.161 33.462-26.842 17.596-42.48-19.478-19.199 1.885-51.171 27.077-40.523 20.519 8.674 41.186-11.994 32.513-32.513-10.648-25.191 21.324-46.555 40.523-27.077 15.638 15.866 42.641 4.681 42.48-17.596-.198-27.349 37.517-34.851 47.8-9.508 8.376 20.643 37.604 20.643 45.98 0v263.477z" fill="#65b1fc"/></g><g><path d="m278.99 162.987c-1.957 1.852-3.619 4.213-4.809 7.145-6.624 16.325-29.738 16.325-36.362 0-8.132-20.041-37.958-14.109-37.801 7.519.127 17.617-21.227 26.462-33.594 13.915-15.183-15.404-40.467 1.491-32.047 21.413 6.859 16.227-9.485 32.571-25.712 25.712-19.922-8.421-36.817 16.864-21.413 32.047 12.547 12.367 3.702 33.722-13.915 33.594-21.628-.156-27.561 29.669-7.519 37.801 16.325 6.624 16.325 29.738 0 36.362-3.087 1.252-5.552 3.022-7.444 5.115h220.616z" fill="#4a98f7"/></g><g><path d="m470.661 190.67v-84.576c0-17.069-13.837-30.905-30.905-30.905-17.069 0-30.905 13.837-30.905 30.905v19.24c0 26.284-22.258 47.295-48.467 45.314-.31-.023-.62-.046-.93-.068-23.843-1.664-42.372-21.408-42.372-45.309v-19.177c0-17.069-13.837-30.905-30.905-30.905-17.069 0-30.905 13.837-30.905 30.905 0 58.691-28.924 113.612-77.319 146.816l-163.168 111.947c-9.254 6.349-14.785 16.851-14.785 28.074 0 24.822 25.664 41.21 48.259 30.933 9.086-4.133 19.434-7.656 37.078-7.656 42.668 0 42.668 20.604 85.337 20.604 42.667 0 42.667-20.604 85.333-20.604 42.665 0 42.665 20.604 85.33 20.604 42.666 0 42.666-20.604 85.332-20.604 17.64 0 27.987 3.522 37.072 7.654 22.595 10.277 48.259-6.111 48.259-30.933v-59.239c0-33.216-9.418-62.988-25.24-87.737-10.548-16.501-16.099-35.699-16.099-55.283z" fill="#96ebe6"/></g><g><g><g><ellipse cx="281.114" cy="305.558" fill="#fff" rx="30.274" ry="24.109"/></g><g><ellipse cx="445.211" cy="305.558" fill="#fff" rx="30.274" ry="24.109"/></g><g><path d="m387.572 287.035c0-15.085-10.928-16.502-24.409-16.502s-24.409 1.417-24.409 16.502 10.928 27.313 24.409 27.313 24.409-12.229 24.409-27.313z" fill="#636978"/></g></g><g><path d="m286.175 284.275c-4.142 0-7.5-3.357-7.5-7.5v-12.362c0-4.143 3.358-7.5 7.5-7.5s7.5 3.357 7.5 7.5v12.362c0 4.143-3.358 7.5-7.5 7.5z" fill="#636978"/></g><g><path d="m440.15 284.275c-4.142 0-7.5-3.357-7.5-7.5v-12.362c0-4.143 3.358-7.5 7.5-7.5s7.5 3.357 7.5 7.5v12.362c0 4.143-3.358 7.5-7.5 7.5z" fill="#636978"/></g></g><g><path d="m177.95 252.91-163.165 111.947c-9.254 6.349-14.785 16.851-14.785 28.074 0 24.822 25.664 41.21 48.259 30.933 9.086-4.133 19.434-7.656 37.078-7.656 42.668 0 42.668 20.604 85.337 20.604 42.667 0 42.667-20.604 85.333-20.604-74.377-8.997-120.67-101.86-78.057-163.298z" fill="#64e1dc"/></g><g><circle cx="394.333" cy="223.511" fill="#64e1dc" r="20.604"/></g><g><circle cx="242.652" cy="365.465" fill="#64e1dc" r="20.604"/></g><g><circle cx="432.786" cy="191.978" fill="#64e1dc" r="15.453"/></g><g><circle cx="296.567" cy="173.369" fill="#64e1dc" r="15.453"/></g><g><circle cx="312.02" cy="386.068" fill="#64e1dc" r="15.453"/></g><g><circle cx="98.556" cy="360.314" fill="#96ebe6" r="15.453"/></g></g></svg>